<mxfile host="app.diagrams.net" modified="2023-04-21T13:03:16.227Z" agent="Mozilla/5.0 (Windows NT 10.0; Win64; x64) AppleWebKit/537.36 (KHTML, like Gecko) Chrome/111.0.0.0 Safari/537.36" etag="ICiZ3g0_2SMVGnjmpst3" version="21.2.1" type="github">
  <diagram name="Page-1" id="a7904f86-f2b4-8e86-fa97-74104820619b">
    <mxGraphModel dx="1434" dy="699" grid="1" gridSize="10" guides="1" tooltips="1" connect="1" arrows="1" fold="1" page="1" pageScale="1" pageWidth="1100" pageHeight="850" background="none" math="0" shadow="0">
      <root>
        <mxCell id="0" />
        <mxCell id="1" parent="0" />
        <mxCell id="rywTV451hzt5ETVBgHHl-75" value="" style="image;aspect=fixed;perimeter=ellipsePerimeter;html=1;align=center;shadow=0;dashed=0;spacingTop=3;image=img/lib/active_directory/database.svg;" vertex="1" parent="1">
          <mxGeometry x="175" y="210" width="50" height="37" as="geometry" />
        </mxCell>
        <mxCell id="rywTV451hzt5ETVBgHHl-76" value="" style="image;aspect=fixed;perimeter=ellipsePerimeter;html=1;align=center;shadow=0;dashed=0;spacingTop=3;image=img/lib/active_directory/database.svg;" vertex="1" parent="1">
          <mxGeometry x="610" y="210" width="50" height="37" as="geometry" />
        </mxCell>
        <mxCell id="rywTV451hzt5ETVBgHHl-79" value="" style="image;aspect=fixed;perimeter=ellipsePerimeter;html=1;align=center;shadow=0;dashed=0;spacingTop=3;image=img/lib/active_directory/database.svg;" vertex="1" parent="1">
          <mxGeometry x="400" y="288.5" width="50" height="37" as="geometry" />
        </mxCell>
        <mxCell id="rywTV451hzt5ETVBgHHl-80" value="" style="image;aspect=fixed;perimeter=ellipsePerimeter;html=1;align=center;shadow=0;dashed=0;spacingTop=3;image=img/lib/active_directory/vista_terminal.svg;" vertex="1" parent="1">
          <mxGeometry x="77.5" y="310" width="32.5" height="50" as="geometry" />
        </mxCell>
        <mxCell id="rywTV451hzt5ETVBgHHl-82" value="" style="image;aspect=fixed;perimeter=ellipsePerimeter;html=1;align=center;shadow=0;dashed=0;spacingTop=3;image=img/lib/active_directory/vista_terminal.svg;" vertex="1" parent="1">
          <mxGeometry x="727.5" y="282" width="32.5" height="50" as="geometry" />
        </mxCell>
        <mxCell id="rywTV451hzt5ETVBgHHl-35" value="SW1" style="shape=table;childLayout=tableLayout;startSize=40;collapsible=0;recursiveResize=0;expand=0;fontSize=16;" vertex="1" parent="1">
          <mxGeometry x="110" y="70" width="180" height="120" as="geometry" />
        </mxCell>
        <mxCell id="rywTV451hzt5ETVBgHHl-36" value="Q7" style="shape=tableRow;horizontal=0;swimlaneHead=0;swimlaneBody=0;top=0;left=0;strokeColor=inherit;bottom=0;right=0;dropTarget=0;fontStyle=0;fillColor=none;points=[[0,0.5],[1,0.5]];portConstraint=eastwest;startSize=40;collapsible=0;recursiveResize=0;expand=0;fontSize=16;" vertex="1" parent="rywTV451hzt5ETVBgHHl-35">
          <mxGeometry y="40" width="180" height="48" as="geometry" />
        </mxCell>
        <mxCell id="rywTV451hzt5ETVBgHHl-37" value="T0" style="swimlane;swimlaneHead=0;swimlaneBody=0;fontStyle=0;strokeColor=inherit;connectable=0;fillColor=none;startSize=20;collapsible=0;recursiveResize=0;expand=0;fontSize=16;" vertex="1" parent="rywTV451hzt5ETVBgHHl-36">
          <mxGeometry x="40" width="47" height="48" as="geometry">
            <mxRectangle width="47" height="48" as="alternateBounds" />
          </mxGeometry>
        </mxCell>
        <mxCell id="rywTV451hzt5ETVBgHHl-51" value="&lt;font style=&quot;font-size: 16px;&quot;&gt;1&lt;/font&gt;" style="text;html=1;align=center;verticalAlign=middle;resizable=0;points=[];autosize=1;strokeColor=none;fillColor=none;" vertex="1" parent="rywTV451hzt5ETVBgHHl-37">
          <mxGeometry x="8.5" y="20" width="30" height="30" as="geometry" />
        </mxCell>
        <mxCell id="rywTV451hzt5ETVBgHHl-38" value="T1" style="swimlane;swimlaneHead=0;swimlaneBody=0;fontStyle=0;strokeColor=inherit;connectable=0;fillColor=none;startSize=20;collapsible=0;recursiveResize=0;expand=0;fontSize=16;" vertex="1" parent="rywTV451hzt5ETVBgHHl-36">
          <mxGeometry x="87" width="46" height="48" as="geometry">
            <mxRectangle width="46" height="48" as="alternateBounds" />
          </mxGeometry>
        </mxCell>
        <mxCell id="rywTV451hzt5ETVBgHHl-52" value="&lt;font style=&quot;font-size: 16px;&quot;&gt;0&lt;/font&gt;" style="text;html=1;align=center;verticalAlign=middle;resizable=0;points=[];autosize=1;strokeColor=none;fillColor=none;" vertex="1" parent="rywTV451hzt5ETVBgHHl-38">
          <mxGeometry x="8" y="20" width="30" height="30" as="geometry" />
        </mxCell>
        <mxCell id="rywTV451hzt5ETVBgHHl-39" value="T2" style="swimlane;swimlaneHead=0;swimlaneBody=0;fontStyle=0;strokeColor=inherit;connectable=0;fillColor=none;startSize=20;collapsible=0;recursiveResize=0;expand=0;fontSize=16;" vertex="1" parent="rywTV451hzt5ETVBgHHl-36">
          <mxGeometry x="133" width="47" height="48" as="geometry">
            <mxRectangle width="47" height="48" as="alternateBounds" />
          </mxGeometry>
        </mxCell>
        <mxCell id="rywTV451hzt5ETVBgHHl-53" value="&lt;font style=&quot;font-size: 16px;&quot;&gt;1&lt;/font&gt;" style="text;html=1;align=center;verticalAlign=middle;resizable=0;points=[];autosize=1;strokeColor=none;fillColor=none;" vertex="1" parent="rywTV451hzt5ETVBgHHl-39">
          <mxGeometry x="8.5" y="20" width="30" height="30" as="geometry" />
        </mxCell>
        <mxCell id="rywTV451hzt5ETVBgHHl-40" value="Q6" style="shape=tableRow;horizontal=0;swimlaneHead=0;swimlaneBody=0;top=0;left=0;strokeColor=inherit;bottom=0;right=0;dropTarget=0;fontStyle=0;fillColor=none;points=[[0,0.5],[1,0.5]];portConstraint=eastwest;startSize=40;collapsible=0;recursiveResize=0;expand=0;fontSize=16;" vertex="1" parent="rywTV451hzt5ETVBgHHl-35">
          <mxGeometry y="88" width="180" height="32" as="geometry" />
        </mxCell>
        <mxCell id="rywTV451hzt5ETVBgHHl-41" value="" style="swimlane;swimlaneHead=0;swimlaneBody=0;fontStyle=0;connectable=0;strokeColor=inherit;fillColor=none;startSize=0;collapsible=0;recursiveResize=0;expand=0;fontSize=16;" vertex="1" parent="rywTV451hzt5ETVBgHHl-40">
          <mxGeometry x="40" width="47" height="32" as="geometry">
            <mxRectangle width="47" height="32" as="alternateBounds" />
          </mxGeometry>
        </mxCell>
        <mxCell id="rywTV451hzt5ETVBgHHl-56" value="&lt;font style=&quot;font-size: 16px;&quot;&gt;0&lt;/font&gt;" style="text;html=1;align=center;verticalAlign=middle;resizable=0;points=[];autosize=1;strokeColor=none;fillColor=none;" vertex="1" parent="rywTV451hzt5ETVBgHHl-41">
          <mxGeometry x="8.5" y="5" width="30" height="30" as="geometry" />
        </mxCell>
        <mxCell id="rywTV451hzt5ETVBgHHl-42" value="" style="swimlane;swimlaneHead=0;swimlaneBody=0;fontStyle=0;connectable=0;strokeColor=inherit;fillColor=none;startSize=0;collapsible=0;recursiveResize=0;expand=0;fontSize=16;" vertex="1" parent="rywTV451hzt5ETVBgHHl-40">
          <mxGeometry x="87" width="46" height="32" as="geometry">
            <mxRectangle width="46" height="32" as="alternateBounds" />
          </mxGeometry>
        </mxCell>
        <mxCell id="rywTV451hzt5ETVBgHHl-57" value="&lt;font style=&quot;font-size: 16px;&quot;&gt;1&lt;/font&gt;" style="text;html=1;align=center;verticalAlign=middle;resizable=0;points=[];autosize=1;strokeColor=none;fillColor=none;" vertex="1" parent="rywTV451hzt5ETVBgHHl-42">
          <mxGeometry x="8" y="5" width="30" height="30" as="geometry" />
        </mxCell>
        <mxCell id="rywTV451hzt5ETVBgHHl-43" value="" style="swimlane;swimlaneHead=0;swimlaneBody=0;fontStyle=0;connectable=0;strokeColor=inherit;fillColor=none;startSize=0;collapsible=0;recursiveResize=0;expand=0;fontSize=16;" vertex="1" parent="rywTV451hzt5ETVBgHHl-40">
          <mxGeometry x="133" width="47" height="32" as="geometry">
            <mxRectangle width="47" height="32" as="alternateBounds" />
          </mxGeometry>
        </mxCell>
        <mxCell id="rywTV451hzt5ETVBgHHl-58" value="&lt;font style=&quot;font-size: 16px;&quot;&gt;0&lt;/font&gt;" style="text;html=1;align=center;verticalAlign=middle;resizable=0;points=[];autosize=1;strokeColor=none;fillColor=none;" vertex="1" parent="rywTV451hzt5ETVBgHHl-43">
          <mxGeometry x="8.5" y="5" width="30" height="30" as="geometry" />
        </mxCell>
        <mxCell id="rywTV451hzt5ETVBgHHl-83" value="SW2" style="shape=table;childLayout=tableLayout;startSize=40;collapsible=0;recursiveResize=0;expand=0;fontSize=16;" vertex="1" parent="1">
          <mxGeometry x="660" y="430" width="180" height="120" as="geometry" />
        </mxCell>
        <mxCell id="rywTV451hzt5ETVBgHHl-84" value="Q7" style="shape=tableRow;horizontal=0;swimlaneHead=0;swimlaneBody=0;top=0;left=0;strokeColor=inherit;bottom=0;right=0;dropTarget=0;fontStyle=0;fillColor=none;points=[[0,0.5],[1,0.5]];portConstraint=eastwest;startSize=40;collapsible=0;recursiveResize=0;expand=0;fontSize=16;" vertex="1" parent="rywTV451hzt5ETVBgHHl-83">
          <mxGeometry y="40" width="180" height="48" as="geometry" />
        </mxCell>
        <mxCell id="rywTV451hzt5ETVBgHHl-85" value="T0" style="swimlane;swimlaneHead=0;swimlaneBody=0;fontStyle=0;strokeColor=inherit;connectable=0;fillColor=none;startSize=20;collapsible=0;recursiveResize=0;expand=0;fontSize=16;" vertex="1" parent="rywTV451hzt5ETVBgHHl-84">
          <mxGeometry x="40" width="47" height="48" as="geometry">
            <mxRectangle width="47" height="48" as="alternateBounds" />
          </mxGeometry>
        </mxCell>
        <mxCell id="rywTV451hzt5ETVBgHHl-86" value="&lt;font style=&quot;font-size: 16px;&quot;&gt;0&lt;/font&gt;" style="text;html=1;align=center;verticalAlign=middle;resizable=0;points=[];autosize=1;strokeColor=none;fillColor=none;" vertex="1" parent="rywTV451hzt5ETVBgHHl-85">
          <mxGeometry x="8.5" y="20" width="30" height="30" as="geometry" />
        </mxCell>
        <mxCell id="rywTV451hzt5ETVBgHHl-87" value="T1" style="swimlane;swimlaneHead=0;swimlaneBody=0;fontStyle=0;strokeColor=inherit;connectable=0;fillColor=none;startSize=20;collapsible=0;recursiveResize=0;expand=0;fontSize=16;" vertex="1" parent="rywTV451hzt5ETVBgHHl-84">
          <mxGeometry x="87" width="46" height="48" as="geometry">
            <mxRectangle width="46" height="48" as="alternateBounds" />
          </mxGeometry>
        </mxCell>
        <mxCell id="rywTV451hzt5ETVBgHHl-88" value="&lt;font style=&quot;font-size: 16px;&quot;&gt;1&lt;/font&gt;" style="text;html=1;align=center;verticalAlign=middle;resizable=0;points=[];autosize=1;strokeColor=none;fillColor=none;" vertex="1" parent="rywTV451hzt5ETVBgHHl-87">
          <mxGeometry x="8" y="20" width="30" height="30" as="geometry" />
        </mxCell>
        <mxCell id="rywTV451hzt5ETVBgHHl-89" value="T2" style="swimlane;swimlaneHead=0;swimlaneBody=0;fontStyle=0;strokeColor=inherit;connectable=0;fillColor=none;startSize=20;collapsible=0;recursiveResize=0;expand=0;fontSize=16;" vertex="1" parent="rywTV451hzt5ETVBgHHl-84">
          <mxGeometry x="133" width="47" height="48" as="geometry">
            <mxRectangle width="47" height="48" as="alternateBounds" />
          </mxGeometry>
        </mxCell>
        <mxCell id="rywTV451hzt5ETVBgHHl-90" value="&lt;font style=&quot;font-size: 16px;&quot;&gt;0&lt;/font&gt;" style="text;html=1;align=center;verticalAlign=middle;resizable=0;points=[];autosize=1;strokeColor=none;fillColor=none;" vertex="1" parent="rywTV451hzt5ETVBgHHl-89">
          <mxGeometry x="8.5" y="20" width="30" height="30" as="geometry" />
        </mxCell>
        <mxCell id="rywTV451hzt5ETVBgHHl-91" value="Q6" style="shape=tableRow;horizontal=0;swimlaneHead=0;swimlaneBody=0;top=0;left=0;strokeColor=inherit;bottom=0;right=0;dropTarget=0;fontStyle=0;fillColor=none;points=[[0,0.5],[1,0.5]];portConstraint=eastwest;startSize=40;collapsible=0;recursiveResize=0;expand=0;fontSize=16;" vertex="1" parent="rywTV451hzt5ETVBgHHl-83">
          <mxGeometry y="88" width="180" height="32" as="geometry" />
        </mxCell>
        <mxCell id="rywTV451hzt5ETVBgHHl-92" value="" style="swimlane;swimlaneHead=0;swimlaneBody=0;fontStyle=0;connectable=0;strokeColor=inherit;fillColor=none;startSize=0;collapsible=0;recursiveResize=0;expand=0;fontSize=16;" vertex="1" parent="rywTV451hzt5ETVBgHHl-91">
          <mxGeometry x="40" width="47" height="32" as="geometry">
            <mxRectangle width="47" height="32" as="alternateBounds" />
          </mxGeometry>
        </mxCell>
        <mxCell id="rywTV451hzt5ETVBgHHl-93" value="&lt;font style=&quot;font-size: 16px;&quot;&gt;1&lt;/font&gt;" style="text;html=1;align=center;verticalAlign=middle;resizable=0;points=[];autosize=1;strokeColor=none;fillColor=none;" vertex="1" parent="rywTV451hzt5ETVBgHHl-92">
          <mxGeometry x="8.5" y="5" width="30" height="30" as="geometry" />
        </mxCell>
        <mxCell id="rywTV451hzt5ETVBgHHl-94" value="" style="swimlane;swimlaneHead=0;swimlaneBody=0;fontStyle=0;connectable=0;strokeColor=inherit;fillColor=none;startSize=0;collapsible=0;recursiveResize=0;expand=0;fontSize=16;" vertex="1" parent="rywTV451hzt5ETVBgHHl-91">
          <mxGeometry x="87" width="46" height="32" as="geometry">
            <mxRectangle width="46" height="32" as="alternateBounds" />
          </mxGeometry>
        </mxCell>
        <mxCell id="rywTV451hzt5ETVBgHHl-95" value="&lt;font style=&quot;font-size: 16px;&quot;&gt;0&lt;/font&gt;" style="text;html=1;align=center;verticalAlign=middle;resizable=0;points=[];autosize=1;strokeColor=none;fillColor=none;" vertex="1" parent="rywTV451hzt5ETVBgHHl-94">
          <mxGeometry x="8" y="5" width="30" height="30" as="geometry" />
        </mxCell>
        <mxCell id="rywTV451hzt5ETVBgHHl-96" value="" style="swimlane;swimlaneHead=0;swimlaneBody=0;fontStyle=0;connectable=0;strokeColor=inherit;fillColor=none;startSize=0;collapsible=0;recursiveResize=0;expand=0;fontSize=16;" vertex="1" parent="rywTV451hzt5ETVBgHHl-91">
          <mxGeometry x="133" width="47" height="32" as="geometry">
            <mxRectangle width="47" height="32" as="alternateBounds" />
          </mxGeometry>
        </mxCell>
        <mxCell id="rywTV451hzt5ETVBgHHl-97" value="&lt;font style=&quot;font-size: 16px;&quot;&gt;1&lt;/font&gt;" style="text;html=1;align=center;verticalAlign=middle;resizable=0;points=[];autosize=1;strokeColor=none;fillColor=none;" vertex="1" parent="rywTV451hzt5ETVBgHHl-96">
          <mxGeometry x="8.5" y="5" width="30" height="30" as="geometry" />
        </mxCell>
        <mxCell id="rywTV451hzt5ETVBgHHl-98" value="SW3" style="shape=table;childLayout=tableLayout;startSize=40;collapsible=0;recursiveResize=0;expand=0;fontSize=16;" vertex="1" parent="1">
          <mxGeometry x="270" y="342" width="180" height="120" as="geometry" />
        </mxCell>
        <mxCell id="rywTV451hzt5ETVBgHHl-99" value="Q7" style="shape=tableRow;horizontal=0;swimlaneHead=0;swimlaneBody=0;top=0;left=0;strokeColor=inherit;bottom=0;right=0;dropTarget=0;fontStyle=0;fillColor=none;points=[[0,0.5],[1,0.5]];portConstraint=eastwest;startSize=40;collapsible=0;recursiveResize=0;expand=0;fontSize=16;" vertex="1" parent="rywTV451hzt5ETVBgHHl-98">
          <mxGeometry y="40" width="180" height="48" as="geometry" />
        </mxCell>
        <mxCell id="rywTV451hzt5ETVBgHHl-100" value="T0" style="swimlane;swimlaneHead=0;swimlaneBody=0;fontStyle=0;strokeColor=inherit;connectable=0;fillColor=none;startSize=20;collapsible=0;recursiveResize=0;expand=0;fontSize=16;" vertex="1" parent="rywTV451hzt5ETVBgHHl-99">
          <mxGeometry x="40" width="47" height="48" as="geometry">
            <mxRectangle width="47" height="48" as="alternateBounds" />
          </mxGeometry>
        </mxCell>
        <mxCell id="rywTV451hzt5ETVBgHHl-101" value="&lt;font style=&quot;font-size: 16px;&quot;&gt;1&lt;/font&gt;" style="text;html=1;align=center;verticalAlign=middle;resizable=0;points=[];autosize=1;strokeColor=none;fillColor=none;" vertex="1" parent="rywTV451hzt5ETVBgHHl-100">
          <mxGeometry x="8.5" y="20" width="30" height="30" as="geometry" />
        </mxCell>
        <mxCell id="rywTV451hzt5ETVBgHHl-102" value="T1" style="swimlane;swimlaneHead=0;swimlaneBody=0;fontStyle=0;strokeColor=inherit;connectable=0;fillColor=none;startSize=20;collapsible=0;recursiveResize=0;expand=0;fontSize=16;" vertex="1" parent="rywTV451hzt5ETVBgHHl-99">
          <mxGeometry x="87" width="46" height="48" as="geometry">
            <mxRectangle width="46" height="48" as="alternateBounds" />
          </mxGeometry>
        </mxCell>
        <mxCell id="rywTV451hzt5ETVBgHHl-103" value="&lt;font style=&quot;font-size: 16px;&quot;&gt;0&lt;/font&gt;" style="text;html=1;align=center;verticalAlign=middle;resizable=0;points=[];autosize=1;strokeColor=none;fillColor=none;" vertex="1" parent="rywTV451hzt5ETVBgHHl-102">
          <mxGeometry x="8" y="20" width="30" height="30" as="geometry" />
        </mxCell>
        <mxCell id="rywTV451hzt5ETVBgHHl-104" value="T2" style="swimlane;swimlaneHead=0;swimlaneBody=0;fontStyle=0;strokeColor=inherit;connectable=0;fillColor=none;startSize=20;collapsible=0;recursiveResize=0;expand=0;fontSize=16;" vertex="1" parent="rywTV451hzt5ETVBgHHl-99">
          <mxGeometry x="133" width="47" height="48" as="geometry">
            <mxRectangle width="47" height="48" as="alternateBounds" />
          </mxGeometry>
        </mxCell>
        <mxCell id="rywTV451hzt5ETVBgHHl-105" value="&lt;font style=&quot;font-size: 16px;&quot;&gt;1&lt;/font&gt;" style="text;html=1;align=center;verticalAlign=middle;resizable=0;points=[];autosize=1;strokeColor=none;fillColor=none;" vertex="1" parent="rywTV451hzt5ETVBgHHl-104">
          <mxGeometry x="8.5" y="20" width="30" height="30" as="geometry" />
        </mxCell>
        <mxCell id="rywTV451hzt5ETVBgHHl-106" value="Q6" style="shape=tableRow;horizontal=0;swimlaneHead=0;swimlaneBody=0;top=0;left=0;strokeColor=inherit;bottom=0;right=0;dropTarget=0;fontStyle=0;fillColor=none;points=[[0,0.5],[1,0.5]];portConstraint=eastwest;startSize=40;collapsible=0;recursiveResize=0;expand=0;fontSize=16;" vertex="1" parent="rywTV451hzt5ETVBgHHl-98">
          <mxGeometry y="88" width="180" height="32" as="geometry" />
        </mxCell>
        <mxCell id="rywTV451hzt5ETVBgHHl-107" value="" style="swimlane;swimlaneHead=0;swimlaneBody=0;fontStyle=0;connectable=0;strokeColor=inherit;fillColor=none;startSize=0;collapsible=0;recursiveResize=0;expand=0;fontSize=16;" vertex="1" parent="rywTV451hzt5ETVBgHHl-106">
          <mxGeometry x="40" width="47" height="32" as="geometry">
            <mxRectangle width="47" height="32" as="alternateBounds" />
          </mxGeometry>
        </mxCell>
        <mxCell id="rywTV451hzt5ETVBgHHl-108" value="&lt;font style=&quot;font-size: 16px;&quot;&gt;0&lt;/font&gt;" style="text;html=1;align=center;verticalAlign=middle;resizable=0;points=[];autosize=1;strokeColor=none;fillColor=none;" vertex="1" parent="rywTV451hzt5ETVBgHHl-107">
          <mxGeometry x="8.5" y="5" width="30" height="30" as="geometry" />
        </mxCell>
        <mxCell id="rywTV451hzt5ETVBgHHl-109" value="" style="swimlane;swimlaneHead=0;swimlaneBody=0;fontStyle=0;connectable=0;strokeColor=inherit;fillColor=none;startSize=0;collapsible=0;recursiveResize=0;expand=0;fontSize=16;" vertex="1" parent="rywTV451hzt5ETVBgHHl-106">
          <mxGeometry x="87" width="46" height="32" as="geometry">
            <mxRectangle width="46" height="32" as="alternateBounds" />
          </mxGeometry>
        </mxCell>
        <mxCell id="rywTV451hzt5ETVBgHHl-110" value="&lt;font style=&quot;font-size: 16px;&quot;&gt;1&lt;/font&gt;" style="text;html=1;align=center;verticalAlign=middle;resizable=0;points=[];autosize=1;strokeColor=none;fillColor=none;" vertex="1" parent="rywTV451hzt5ETVBgHHl-109">
          <mxGeometry x="8" y="5" width="30" height="30" as="geometry" />
        </mxCell>
        <mxCell id="rywTV451hzt5ETVBgHHl-111" value="" style="swimlane;swimlaneHead=0;swimlaneBody=0;fontStyle=0;connectable=0;strokeColor=inherit;fillColor=none;startSize=0;collapsible=0;recursiveResize=0;expand=0;fontSize=16;" vertex="1" parent="rywTV451hzt5ETVBgHHl-106">
          <mxGeometry x="133" width="47" height="32" as="geometry">
            <mxRectangle width="47" height="32" as="alternateBounds" />
          </mxGeometry>
        </mxCell>
        <mxCell id="rywTV451hzt5ETVBgHHl-112" value="&lt;font style=&quot;font-size: 16px;&quot;&gt;0&lt;/font&gt;" style="text;html=1;align=center;verticalAlign=middle;resizable=0;points=[];autosize=1;strokeColor=none;fillColor=none;" vertex="1" parent="rywTV451hzt5ETVBgHHl-111">
          <mxGeometry x="8.5" y="5" width="30" height="30" as="geometry" />
        </mxCell>
        <mxCell id="rywTV451hzt5ETVBgHHl-113" value="ES1" style="shape=table;childLayout=tableLayout;startSize=40;collapsible=0;recursiveResize=0;expand=0;fontSize=16;" vertex="1" parent="1">
          <mxGeometry x="760" y="245.5" width="180" height="120" as="geometry" />
        </mxCell>
        <mxCell id="rywTV451hzt5ETVBgHHl-114" value="Q7" style="shape=tableRow;horizontal=0;swimlaneHead=0;swimlaneBody=0;top=0;left=0;strokeColor=inherit;bottom=0;right=0;dropTarget=0;fontStyle=0;fillColor=none;points=[[0,0.5],[1,0.5]];portConstraint=eastwest;startSize=40;collapsible=0;recursiveResize=0;expand=0;fontSize=16;" vertex="1" parent="rywTV451hzt5ETVBgHHl-113">
          <mxGeometry y="40" width="180" height="48" as="geometry" />
        </mxCell>
        <mxCell id="rywTV451hzt5ETVBgHHl-115" value="T0" style="swimlane;swimlaneHead=0;swimlaneBody=0;fontStyle=0;strokeColor=inherit;connectable=0;fillColor=none;startSize=20;collapsible=0;recursiveResize=0;expand=0;fontSize=16;" vertex="1" parent="rywTV451hzt5ETVBgHHl-114">
          <mxGeometry x="40" width="47" height="48" as="geometry">
            <mxRectangle width="47" height="48" as="alternateBounds" />
          </mxGeometry>
        </mxCell>
        <mxCell id="rywTV451hzt5ETVBgHHl-116" value="&lt;font style=&quot;font-size: 16px;&quot;&gt;1&lt;/font&gt;" style="text;html=1;align=center;verticalAlign=middle;resizable=0;points=[];autosize=1;strokeColor=none;fillColor=none;" vertex="1" parent="rywTV451hzt5ETVBgHHl-115">
          <mxGeometry x="8.5" y="20" width="30" height="30" as="geometry" />
        </mxCell>
        <mxCell id="rywTV451hzt5ETVBgHHl-117" value="T1" style="swimlane;swimlaneHead=0;swimlaneBody=0;fontStyle=0;strokeColor=inherit;connectable=0;fillColor=none;startSize=20;collapsible=0;recursiveResize=0;expand=0;fontSize=16;" vertex="1" parent="rywTV451hzt5ETVBgHHl-114">
          <mxGeometry x="87" width="46" height="48" as="geometry">
            <mxRectangle width="46" height="48" as="alternateBounds" />
          </mxGeometry>
        </mxCell>
        <mxCell id="rywTV451hzt5ETVBgHHl-118" value="&lt;font style=&quot;font-size: 16px;&quot;&gt;0&lt;/font&gt;" style="text;html=1;align=center;verticalAlign=middle;resizable=0;points=[];autosize=1;strokeColor=none;fillColor=none;" vertex="1" parent="rywTV451hzt5ETVBgHHl-117">
          <mxGeometry x="8" y="20" width="30" height="30" as="geometry" />
        </mxCell>
        <mxCell id="rywTV451hzt5ETVBgHHl-119" value="T2" style="swimlane;swimlaneHead=0;swimlaneBody=0;fontStyle=0;strokeColor=inherit;connectable=0;fillColor=none;startSize=20;collapsible=0;recursiveResize=0;expand=0;fontSize=16;" vertex="1" parent="rywTV451hzt5ETVBgHHl-114">
          <mxGeometry x="133" width="47" height="48" as="geometry">
            <mxRectangle width="47" height="48" as="alternateBounds" />
          </mxGeometry>
        </mxCell>
        <mxCell id="rywTV451hzt5ETVBgHHl-120" value="&lt;font style=&quot;font-size: 16px;&quot;&gt;1&lt;/font&gt;" style="text;html=1;align=center;verticalAlign=middle;resizable=0;points=[];autosize=1;strokeColor=none;fillColor=none;" vertex="1" parent="rywTV451hzt5ETVBgHHl-119">
          <mxGeometry x="8.5" y="20" width="30" height="30" as="geometry" />
        </mxCell>
        <mxCell id="rywTV451hzt5ETVBgHHl-121" value="Q6" style="shape=tableRow;horizontal=0;swimlaneHead=0;swimlaneBody=0;top=0;left=0;strokeColor=inherit;bottom=0;right=0;dropTarget=0;fontStyle=0;fillColor=none;points=[[0,0.5],[1,0.5]];portConstraint=eastwest;startSize=40;collapsible=0;recursiveResize=0;expand=0;fontSize=16;" vertex="1" parent="rywTV451hzt5ETVBgHHl-113">
          <mxGeometry y="88" width="180" height="32" as="geometry" />
        </mxCell>
        <mxCell id="rywTV451hzt5ETVBgHHl-122" value="" style="swimlane;swimlaneHead=0;swimlaneBody=0;fontStyle=0;connectable=0;strokeColor=inherit;fillColor=none;startSize=0;collapsible=0;recursiveResize=0;expand=0;fontSize=16;" vertex="1" parent="rywTV451hzt5ETVBgHHl-121">
          <mxGeometry x="40" width="47" height="32" as="geometry">
            <mxRectangle width="47" height="32" as="alternateBounds" />
          </mxGeometry>
        </mxCell>
        <mxCell id="rywTV451hzt5ETVBgHHl-123" value="&lt;font style=&quot;font-size: 16px;&quot;&gt;0&lt;/font&gt;" style="text;html=1;align=center;verticalAlign=middle;resizable=0;points=[];autosize=1;strokeColor=none;fillColor=none;" vertex="1" parent="rywTV451hzt5ETVBgHHl-122">
          <mxGeometry x="8.5" y="5" width="30" height="30" as="geometry" />
        </mxCell>
        <mxCell id="rywTV451hzt5ETVBgHHl-124" value="" style="swimlane;swimlaneHead=0;swimlaneBody=0;fontStyle=0;connectable=0;strokeColor=inherit;fillColor=none;startSize=0;collapsible=0;recursiveResize=0;expand=0;fontSize=16;" vertex="1" parent="rywTV451hzt5ETVBgHHl-121">
          <mxGeometry x="87" width="46" height="32" as="geometry">
            <mxRectangle width="46" height="32" as="alternateBounds" />
          </mxGeometry>
        </mxCell>
        <mxCell id="rywTV451hzt5ETVBgHHl-125" value="&lt;font style=&quot;font-size: 16px;&quot;&gt;1&lt;/font&gt;" style="text;html=1;align=center;verticalAlign=middle;resizable=0;points=[];autosize=1;strokeColor=none;fillColor=none;" vertex="1" parent="rywTV451hzt5ETVBgHHl-124">
          <mxGeometry x="8" y="5" width="30" height="30" as="geometry" />
        </mxCell>
        <mxCell id="rywTV451hzt5ETVBgHHl-126" value="" style="swimlane;swimlaneHead=0;swimlaneBody=0;fontStyle=0;connectable=0;strokeColor=inherit;fillColor=none;startSize=0;collapsible=0;recursiveResize=0;expand=0;fontSize=16;" vertex="1" parent="rywTV451hzt5ETVBgHHl-121">
          <mxGeometry x="133" width="47" height="32" as="geometry">
            <mxRectangle width="47" height="32" as="alternateBounds" />
          </mxGeometry>
        </mxCell>
        <mxCell id="rywTV451hzt5ETVBgHHl-127" value="&lt;font style=&quot;font-size: 16px;&quot;&gt;0&lt;/font&gt;" style="text;html=1;align=center;verticalAlign=middle;resizable=0;points=[];autosize=1;strokeColor=none;fillColor=none;" vertex="1" parent="rywTV451hzt5ETVBgHHl-126">
          <mxGeometry x="8.5" y="5" width="30" height="30" as="geometry" />
        </mxCell>
        <mxCell id="rywTV451hzt5ETVBgHHl-128" value="ES3" style="shape=table;childLayout=tableLayout;startSize=40;collapsible=0;recursiveResize=0;expand=0;fontSize=16;" vertex="1" parent="1">
          <mxGeometry x="45" y="360" width="180" height="120" as="geometry" />
        </mxCell>
        <mxCell id="rywTV451hzt5ETVBgHHl-129" value="Q7" style="shape=tableRow;horizontal=0;swimlaneHead=0;swimlaneBody=0;top=0;left=0;strokeColor=inherit;bottom=0;right=0;dropTarget=0;fontStyle=0;fillColor=none;points=[[0,0.5],[1,0.5]];portConstraint=eastwest;startSize=40;collapsible=0;recursiveResize=0;expand=0;fontSize=16;" vertex="1" parent="rywTV451hzt5ETVBgHHl-128">
          <mxGeometry y="40" width="180" height="48" as="geometry" />
        </mxCell>
        <mxCell id="rywTV451hzt5ETVBgHHl-130" value="T0" style="swimlane;swimlaneHead=0;swimlaneBody=0;fontStyle=0;strokeColor=inherit;connectable=0;fillColor=none;startSize=20;collapsible=0;recursiveResize=0;expand=0;fontSize=16;" vertex="1" parent="rywTV451hzt5ETVBgHHl-129">
          <mxGeometry x="40" width="47" height="48" as="geometry">
            <mxRectangle width="47" height="48" as="alternateBounds" />
          </mxGeometry>
        </mxCell>
        <mxCell id="rywTV451hzt5ETVBgHHl-131" value="&lt;font style=&quot;font-size: 16px;&quot;&gt;1&lt;/font&gt;" style="text;html=1;align=center;verticalAlign=middle;resizable=0;points=[];autosize=1;strokeColor=none;fillColor=none;" vertex="1" parent="rywTV451hzt5ETVBgHHl-130">
          <mxGeometry x="8.5" y="20" width="30" height="30" as="geometry" />
        </mxCell>
        <mxCell id="rywTV451hzt5ETVBgHHl-132" value="T1" style="swimlane;swimlaneHead=0;swimlaneBody=0;fontStyle=0;strokeColor=inherit;connectable=0;fillColor=none;startSize=20;collapsible=0;recursiveResize=0;expand=0;fontSize=16;" vertex="1" parent="rywTV451hzt5ETVBgHHl-129">
          <mxGeometry x="87" width="46" height="48" as="geometry">
            <mxRectangle width="46" height="48" as="alternateBounds" />
          </mxGeometry>
        </mxCell>
        <mxCell id="rywTV451hzt5ETVBgHHl-133" value="&lt;font style=&quot;font-size: 16px;&quot;&gt;0&lt;/font&gt;" style="text;html=1;align=center;verticalAlign=middle;resizable=0;points=[];autosize=1;strokeColor=none;fillColor=none;" vertex="1" parent="rywTV451hzt5ETVBgHHl-132">
          <mxGeometry x="8" y="20" width="30" height="30" as="geometry" />
        </mxCell>
        <mxCell id="rywTV451hzt5ETVBgHHl-134" value="T2" style="swimlane;swimlaneHead=0;swimlaneBody=0;fontStyle=0;strokeColor=inherit;connectable=0;fillColor=none;startSize=20;collapsible=0;recursiveResize=0;expand=0;fontSize=16;" vertex="1" parent="rywTV451hzt5ETVBgHHl-129">
          <mxGeometry x="133" width="47" height="48" as="geometry">
            <mxRectangle width="47" height="48" as="alternateBounds" />
          </mxGeometry>
        </mxCell>
        <mxCell id="rywTV451hzt5ETVBgHHl-135" value="&lt;font style=&quot;font-size: 16px;&quot;&gt;1&lt;/font&gt;" style="text;html=1;align=center;verticalAlign=middle;resizable=0;points=[];autosize=1;strokeColor=none;fillColor=none;" vertex="1" parent="rywTV451hzt5ETVBgHHl-134">
          <mxGeometry x="8.5" y="20" width="30" height="30" as="geometry" />
        </mxCell>
        <mxCell id="rywTV451hzt5ETVBgHHl-136" value="Q6" style="shape=tableRow;horizontal=0;swimlaneHead=0;swimlaneBody=0;top=0;left=0;strokeColor=inherit;bottom=0;right=0;dropTarget=0;fontStyle=0;fillColor=none;points=[[0,0.5],[1,0.5]];portConstraint=eastwest;startSize=40;collapsible=0;recursiveResize=0;expand=0;fontSize=16;" vertex="1" parent="rywTV451hzt5ETVBgHHl-128">
          <mxGeometry y="88" width="180" height="32" as="geometry" />
        </mxCell>
        <mxCell id="rywTV451hzt5ETVBgHHl-137" value="" style="swimlane;swimlaneHead=0;swimlaneBody=0;fontStyle=0;connectable=0;strokeColor=inherit;fillColor=none;startSize=0;collapsible=0;recursiveResize=0;expand=0;fontSize=16;" vertex="1" parent="rywTV451hzt5ETVBgHHl-136">
          <mxGeometry x="40" width="47" height="32" as="geometry">
            <mxRectangle width="47" height="32" as="alternateBounds" />
          </mxGeometry>
        </mxCell>
        <mxCell id="rywTV451hzt5ETVBgHHl-138" value="&lt;font style=&quot;font-size: 16px;&quot;&gt;0&lt;/font&gt;" style="text;html=1;align=center;verticalAlign=middle;resizable=0;points=[];autosize=1;strokeColor=none;fillColor=none;" vertex="1" parent="rywTV451hzt5ETVBgHHl-137">
          <mxGeometry x="8.5" y="5" width="30" height="30" as="geometry" />
        </mxCell>
        <mxCell id="rywTV451hzt5ETVBgHHl-139" value="" style="swimlane;swimlaneHead=0;swimlaneBody=0;fontStyle=0;connectable=0;strokeColor=inherit;fillColor=none;startSize=0;collapsible=0;recursiveResize=0;expand=0;fontSize=16;" vertex="1" parent="rywTV451hzt5ETVBgHHl-136">
          <mxGeometry x="87" width="46" height="32" as="geometry">
            <mxRectangle width="46" height="32" as="alternateBounds" />
          </mxGeometry>
        </mxCell>
        <mxCell id="rywTV451hzt5ETVBgHHl-140" value="&lt;font style=&quot;font-size: 16px;&quot;&gt;1&lt;/font&gt;" style="text;html=1;align=center;verticalAlign=middle;resizable=0;points=[];autosize=1;strokeColor=none;fillColor=none;" vertex="1" parent="rywTV451hzt5ETVBgHHl-139">
          <mxGeometry x="8" y="5" width="30" height="30" as="geometry" />
        </mxCell>
        <mxCell id="rywTV451hzt5ETVBgHHl-141" value="" style="swimlane;swimlaneHead=0;swimlaneBody=0;fontStyle=0;connectable=0;strokeColor=inherit;fillColor=none;startSize=0;collapsible=0;recursiveResize=0;expand=0;fontSize=16;" vertex="1" parent="rywTV451hzt5ETVBgHHl-136">
          <mxGeometry x="133" width="47" height="32" as="geometry">
            <mxRectangle width="47" height="32" as="alternateBounds" />
          </mxGeometry>
        </mxCell>
        <mxCell id="rywTV451hzt5ETVBgHHl-142" value="&lt;font style=&quot;font-size: 16px;&quot;&gt;0&lt;/font&gt;" style="text;html=1;align=center;verticalAlign=middle;resizable=0;points=[];autosize=1;strokeColor=none;fillColor=none;" vertex="1" parent="rywTV451hzt5ETVBgHHl-141">
          <mxGeometry x="8.5" y="5" width="30" height="30" as="geometry" />
        </mxCell>
        <mxCell id="rywTV451hzt5ETVBgHHl-145" value="" style="endArrow=classic;startArrow=classic;html=1;rounded=0;entryX=0;entryY=0.75;entryDx=0;entryDy=0;exitX=0.5;exitY=0;exitDx=0;exitDy=0;" edge="1" parent="1" source="rywTV451hzt5ETVBgHHl-80" target="rywTV451hzt5ETVBgHHl-75">
          <mxGeometry width="50" height="50" relative="1" as="geometry">
            <mxPoint x="100" y="330" as="sourcePoint" />
            <mxPoint x="160" y="275.5" as="targetPoint" />
          </mxGeometry>
        </mxCell>
        <mxCell id="rywTV451hzt5ETVBgHHl-147" value="" style="endArrow=classic;startArrow=classic;html=1;rounded=0;entryX=0;entryY=0.5;entryDx=0;entryDy=0;exitX=1;exitY=0.5;exitDx=0;exitDy=0;" edge="1" parent="1" source="rywTV451hzt5ETVBgHHl-75" target="rywTV451hzt5ETVBgHHl-76">
          <mxGeometry width="50" height="50" relative="1" as="geometry">
            <mxPoint x="230" y="230" as="sourcePoint" />
            <mxPoint x="270" y="190" as="targetPoint" />
          </mxGeometry>
        </mxCell>
        <mxCell id="rywTV451hzt5ETVBgHHl-149" value="" style="endArrow=classic;startArrow=classic;html=1;rounded=0;entryX=0;entryY=0.5;entryDx=0;entryDy=0;exitX=0.75;exitY=1;exitDx=0;exitDy=0;" edge="1" parent="1" source="rywTV451hzt5ETVBgHHl-75" target="rywTV451hzt5ETVBgHHl-79">
          <mxGeometry width="50" height="50" relative="1" as="geometry">
            <mxPoint x="160" y="370" as="sourcePoint" />
            <mxPoint x="210" y="320" as="targetPoint" />
          </mxGeometry>
        </mxCell>
        <mxCell id="rywTV451hzt5ETVBgHHl-150" value="" style="endArrow=classic;startArrow=classic;html=1;rounded=0;exitX=0.75;exitY=0;exitDx=0;exitDy=0;entryX=1;entryY=0.5;entryDx=0;entryDy=0;" edge="1" parent="1" source="rywTV451hzt5ETVBgHHl-82" target="rywTV451hzt5ETVBgHHl-76">
          <mxGeometry width="50" height="50" relative="1" as="geometry">
            <mxPoint x="590" y="290" as="sourcePoint" />
            <mxPoint x="640" y="240" as="targetPoint" />
          </mxGeometry>
        </mxCell>
        <mxCell id="rywTV451hzt5ETVBgHHl-199" style="edgeStyle=orthogonalEdgeStyle;rounded=0;orthogonalLoop=1;jettySize=auto;html=1;exitX=1;exitY=0.5;exitDx=0;exitDy=0;entryX=0.75;entryY=1;entryDx=0;entryDy=0;" edge="1" parent="1" source="rywTV451hzt5ETVBgHHl-151" target="rywTV451hzt5ETVBgHHl-76">
          <mxGeometry relative="1" as="geometry" />
        </mxCell>
        <mxCell id="rywTV451hzt5ETVBgHHl-151" value="" style="image;aspect=fixed;perimeter=ellipsePerimeter;html=1;align=center;shadow=0;dashed=0;spacingTop=3;image=img/lib/active_directory/database.svg;" vertex="1" parent="1">
          <mxGeometry x="570" y="425" width="50" height="37" as="geometry" />
        </mxCell>
        <mxCell id="rywTV451hzt5ETVBgHHl-152" value="" style="image;aspect=fixed;perimeter=ellipsePerimeter;html=1;align=center;shadow=0;dashed=0;spacingTop=3;image=img/lib/active_directory/vista_terminal.svg;" vertex="1" parent="1">
          <mxGeometry x="363.75" y="105" width="32.5" height="50" as="geometry" />
        </mxCell>
        <mxCell id="rywTV451hzt5ETVBgHHl-153" value="SW4" style="shape=table;childLayout=tableLayout;startSize=40;collapsible=0;recursiveResize=0;expand=0;fontSize=16;" vertex="1" parent="1">
          <mxGeometry x="690" y="90" width="180" height="120" as="geometry" />
        </mxCell>
        <mxCell id="rywTV451hzt5ETVBgHHl-154" value="Q7" style="shape=tableRow;horizontal=0;swimlaneHead=0;swimlaneBody=0;top=0;left=0;strokeColor=inherit;bottom=0;right=0;dropTarget=0;fontStyle=0;fillColor=none;points=[[0,0.5],[1,0.5]];portConstraint=eastwest;startSize=40;collapsible=0;recursiveResize=0;expand=0;fontSize=16;" vertex="1" parent="rywTV451hzt5ETVBgHHl-153">
          <mxGeometry y="40" width="180" height="48" as="geometry" />
        </mxCell>
        <mxCell id="rywTV451hzt5ETVBgHHl-155" value="T0" style="swimlane;swimlaneHead=0;swimlaneBody=0;fontStyle=0;strokeColor=inherit;connectable=0;fillColor=none;startSize=20;collapsible=0;recursiveResize=0;expand=0;fontSize=16;" vertex="1" parent="rywTV451hzt5ETVBgHHl-154">
          <mxGeometry x="40" width="47" height="48" as="geometry">
            <mxRectangle width="47" height="48" as="alternateBounds" />
          </mxGeometry>
        </mxCell>
        <mxCell id="rywTV451hzt5ETVBgHHl-156" value="&lt;font style=&quot;font-size: 16px;&quot;&gt;1&lt;/font&gt;" style="text;html=1;align=center;verticalAlign=middle;resizable=0;points=[];autosize=1;strokeColor=none;fillColor=none;" vertex="1" parent="rywTV451hzt5ETVBgHHl-155">
          <mxGeometry x="8.5" y="20" width="30" height="30" as="geometry" />
        </mxCell>
        <mxCell id="rywTV451hzt5ETVBgHHl-157" value="T1" style="swimlane;swimlaneHead=0;swimlaneBody=0;fontStyle=0;strokeColor=inherit;connectable=0;fillColor=none;startSize=20;collapsible=0;recursiveResize=0;expand=0;fontSize=16;" vertex="1" parent="rywTV451hzt5ETVBgHHl-154">
          <mxGeometry x="87" width="46" height="48" as="geometry">
            <mxRectangle width="46" height="48" as="alternateBounds" />
          </mxGeometry>
        </mxCell>
        <mxCell id="rywTV451hzt5ETVBgHHl-158" value="&lt;font style=&quot;font-size: 16px;&quot;&gt;0&lt;/font&gt;" style="text;html=1;align=center;verticalAlign=middle;resizable=0;points=[];autosize=1;strokeColor=none;fillColor=none;" vertex="1" parent="rywTV451hzt5ETVBgHHl-157">
          <mxGeometry x="8" y="20" width="30" height="30" as="geometry" />
        </mxCell>
        <mxCell id="rywTV451hzt5ETVBgHHl-159" value="T2" style="swimlane;swimlaneHead=0;swimlaneBody=0;fontStyle=0;strokeColor=inherit;connectable=0;fillColor=none;startSize=20;collapsible=0;recursiveResize=0;expand=0;fontSize=16;" vertex="1" parent="rywTV451hzt5ETVBgHHl-154">
          <mxGeometry x="133" width="47" height="48" as="geometry">
            <mxRectangle width="47" height="48" as="alternateBounds" />
          </mxGeometry>
        </mxCell>
        <mxCell id="rywTV451hzt5ETVBgHHl-160" value="&lt;font style=&quot;font-size: 16px;&quot;&gt;1&lt;/font&gt;" style="text;html=1;align=center;verticalAlign=middle;resizable=0;points=[];autosize=1;strokeColor=none;fillColor=none;" vertex="1" parent="rywTV451hzt5ETVBgHHl-159">
          <mxGeometry x="8.5" y="20" width="30" height="30" as="geometry" />
        </mxCell>
        <mxCell id="rywTV451hzt5ETVBgHHl-161" value="Q6" style="shape=tableRow;horizontal=0;swimlaneHead=0;swimlaneBody=0;top=0;left=0;strokeColor=inherit;bottom=0;right=0;dropTarget=0;fontStyle=0;fillColor=none;points=[[0,0.5],[1,0.5]];portConstraint=eastwest;startSize=40;collapsible=0;recursiveResize=0;expand=0;fontSize=16;" vertex="1" parent="rywTV451hzt5ETVBgHHl-153">
          <mxGeometry y="88" width="180" height="32" as="geometry" />
        </mxCell>
        <mxCell id="rywTV451hzt5ETVBgHHl-162" value="" style="swimlane;swimlaneHead=0;swimlaneBody=0;fontStyle=0;connectable=0;strokeColor=inherit;fillColor=none;startSize=0;collapsible=0;recursiveResize=0;expand=0;fontSize=16;" vertex="1" parent="rywTV451hzt5ETVBgHHl-161">
          <mxGeometry x="40" width="47" height="32" as="geometry">
            <mxRectangle width="47" height="32" as="alternateBounds" />
          </mxGeometry>
        </mxCell>
        <mxCell id="rywTV451hzt5ETVBgHHl-163" value="&lt;font style=&quot;font-size: 16px;&quot;&gt;0&lt;/font&gt;" style="text;html=1;align=center;verticalAlign=middle;resizable=0;points=[];autosize=1;strokeColor=none;fillColor=none;" vertex="1" parent="rywTV451hzt5ETVBgHHl-162">
          <mxGeometry x="8.5" y="5" width="30" height="30" as="geometry" />
        </mxCell>
        <mxCell id="rywTV451hzt5ETVBgHHl-164" value="" style="swimlane;swimlaneHead=0;swimlaneBody=0;fontStyle=0;connectable=0;strokeColor=inherit;fillColor=none;startSize=0;collapsible=0;recursiveResize=0;expand=0;fontSize=16;" vertex="1" parent="rywTV451hzt5ETVBgHHl-161">
          <mxGeometry x="87" width="46" height="32" as="geometry">
            <mxRectangle width="46" height="32" as="alternateBounds" />
          </mxGeometry>
        </mxCell>
        <mxCell id="rywTV451hzt5ETVBgHHl-165" value="&lt;font style=&quot;font-size: 16px;&quot;&gt;1&lt;/font&gt;" style="text;html=1;align=center;verticalAlign=middle;resizable=0;points=[];autosize=1;strokeColor=none;fillColor=none;" vertex="1" parent="rywTV451hzt5ETVBgHHl-164">
          <mxGeometry x="8" y="5" width="30" height="30" as="geometry" />
        </mxCell>
        <mxCell id="rywTV451hzt5ETVBgHHl-166" value="" style="swimlane;swimlaneHead=0;swimlaneBody=0;fontStyle=0;connectable=0;strokeColor=inherit;fillColor=none;startSize=0;collapsible=0;recursiveResize=0;expand=0;fontSize=16;" vertex="1" parent="rywTV451hzt5ETVBgHHl-161">
          <mxGeometry x="133" width="47" height="32" as="geometry">
            <mxRectangle width="47" height="32" as="alternateBounds" />
          </mxGeometry>
        </mxCell>
        <mxCell id="rywTV451hzt5ETVBgHHl-167" value="&lt;font style=&quot;font-size: 16px;&quot;&gt;0&lt;/font&gt;" style="text;html=1;align=center;verticalAlign=middle;resizable=0;points=[];autosize=1;strokeColor=none;fillColor=none;" vertex="1" parent="rywTV451hzt5ETVBgHHl-166">
          <mxGeometry x="8.5" y="5" width="30" height="30" as="geometry" />
        </mxCell>
        <mxCell id="rywTV451hzt5ETVBgHHl-168" value="ES2" style="shape=table;childLayout=tableLayout;startSize=40;collapsible=0;recursiveResize=0;expand=0;fontSize=16;" vertex="1" parent="1">
          <mxGeometry x="410" y="35" width="180" height="120" as="geometry" />
        </mxCell>
        <mxCell id="rywTV451hzt5ETVBgHHl-169" value="Q7" style="shape=tableRow;horizontal=0;swimlaneHead=0;swimlaneBody=0;top=0;left=0;strokeColor=inherit;bottom=0;right=0;dropTarget=0;fontStyle=0;fillColor=none;points=[[0,0.5],[1,0.5]];portConstraint=eastwest;startSize=40;collapsible=0;recursiveResize=0;expand=0;fontSize=16;" vertex="1" parent="rywTV451hzt5ETVBgHHl-168">
          <mxGeometry y="40" width="180" height="48" as="geometry" />
        </mxCell>
        <mxCell id="rywTV451hzt5ETVBgHHl-170" value="T0" style="swimlane;swimlaneHead=0;swimlaneBody=0;fontStyle=0;strokeColor=inherit;connectable=0;fillColor=none;startSize=20;collapsible=0;recursiveResize=0;expand=0;fontSize=16;" vertex="1" parent="rywTV451hzt5ETVBgHHl-169">
          <mxGeometry x="40" width="47" height="48" as="geometry">
            <mxRectangle width="47" height="48" as="alternateBounds" />
          </mxGeometry>
        </mxCell>
        <mxCell id="rywTV451hzt5ETVBgHHl-171" value="&lt;font style=&quot;font-size: 16px;&quot;&gt;1&lt;/font&gt;" style="text;html=1;align=center;verticalAlign=middle;resizable=0;points=[];autosize=1;strokeColor=none;fillColor=none;" vertex="1" parent="rywTV451hzt5ETVBgHHl-170">
          <mxGeometry x="8.5" y="20" width="30" height="30" as="geometry" />
        </mxCell>
        <mxCell id="rywTV451hzt5ETVBgHHl-172" value="T1" style="swimlane;swimlaneHead=0;swimlaneBody=0;fontStyle=0;strokeColor=inherit;connectable=0;fillColor=none;startSize=20;collapsible=0;recursiveResize=0;expand=0;fontSize=16;" vertex="1" parent="rywTV451hzt5ETVBgHHl-169">
          <mxGeometry x="87" width="46" height="48" as="geometry">
            <mxRectangle width="46" height="48" as="alternateBounds" />
          </mxGeometry>
        </mxCell>
        <mxCell id="rywTV451hzt5ETVBgHHl-173" value="&lt;font style=&quot;font-size: 16px;&quot;&gt;0&lt;/font&gt;" style="text;html=1;align=center;verticalAlign=middle;resizable=0;points=[];autosize=1;strokeColor=none;fillColor=none;" vertex="1" parent="rywTV451hzt5ETVBgHHl-172">
          <mxGeometry x="8" y="20" width="30" height="30" as="geometry" />
        </mxCell>
        <mxCell id="rywTV451hzt5ETVBgHHl-174" value="T2" style="swimlane;swimlaneHead=0;swimlaneBody=0;fontStyle=0;strokeColor=inherit;connectable=0;fillColor=none;startSize=20;collapsible=0;recursiveResize=0;expand=0;fontSize=16;" vertex="1" parent="rywTV451hzt5ETVBgHHl-169">
          <mxGeometry x="133" width="47" height="48" as="geometry">
            <mxRectangle width="47" height="48" as="alternateBounds" />
          </mxGeometry>
        </mxCell>
        <mxCell id="rywTV451hzt5ETVBgHHl-175" value="&lt;font style=&quot;font-size: 16px;&quot;&gt;1&lt;/font&gt;" style="text;html=1;align=center;verticalAlign=middle;resizable=0;points=[];autosize=1;strokeColor=none;fillColor=none;" vertex="1" parent="rywTV451hzt5ETVBgHHl-174">
          <mxGeometry x="8.5" y="20" width="30" height="30" as="geometry" />
        </mxCell>
        <mxCell id="rywTV451hzt5ETVBgHHl-176" value="Q6" style="shape=tableRow;horizontal=0;swimlaneHead=0;swimlaneBody=0;top=0;left=0;strokeColor=inherit;bottom=0;right=0;dropTarget=0;fontStyle=0;fillColor=none;points=[[0,0.5],[1,0.5]];portConstraint=eastwest;startSize=40;collapsible=0;recursiveResize=0;expand=0;fontSize=16;" vertex="1" parent="rywTV451hzt5ETVBgHHl-168">
          <mxGeometry y="88" width="180" height="32" as="geometry" />
        </mxCell>
        <mxCell id="rywTV451hzt5ETVBgHHl-177" value="" style="swimlane;swimlaneHead=0;swimlaneBody=0;fontStyle=0;connectable=0;strokeColor=inherit;fillColor=none;startSize=0;collapsible=0;recursiveResize=0;expand=0;fontSize=16;" vertex="1" parent="rywTV451hzt5ETVBgHHl-176">
          <mxGeometry x="40" width="47" height="32" as="geometry">
            <mxRectangle width="47" height="32" as="alternateBounds" />
          </mxGeometry>
        </mxCell>
        <mxCell id="rywTV451hzt5ETVBgHHl-178" value="&lt;font style=&quot;font-size: 16px;&quot;&gt;0&lt;/font&gt;" style="text;html=1;align=center;verticalAlign=middle;resizable=0;points=[];autosize=1;strokeColor=none;fillColor=none;" vertex="1" parent="rywTV451hzt5ETVBgHHl-177">
          <mxGeometry x="8.5" y="5" width="30" height="30" as="geometry" />
        </mxCell>
        <mxCell id="rywTV451hzt5ETVBgHHl-179" value="" style="swimlane;swimlaneHead=0;swimlaneBody=0;fontStyle=0;connectable=0;strokeColor=inherit;fillColor=none;startSize=0;collapsible=0;recursiveResize=0;expand=0;fontSize=16;" vertex="1" parent="rywTV451hzt5ETVBgHHl-176">
          <mxGeometry x="87" width="46" height="32" as="geometry">
            <mxRectangle width="46" height="32" as="alternateBounds" />
          </mxGeometry>
        </mxCell>
        <mxCell id="rywTV451hzt5ETVBgHHl-180" value="&lt;font style=&quot;font-size: 16px;&quot;&gt;1&lt;/font&gt;" style="text;html=1;align=center;verticalAlign=middle;resizable=0;points=[];autosize=1;strokeColor=none;fillColor=none;" vertex="1" parent="rywTV451hzt5ETVBgHHl-179">
          <mxGeometry x="8" y="5" width="30" height="30" as="geometry" />
        </mxCell>
        <mxCell id="rywTV451hzt5ETVBgHHl-181" value="" style="swimlane;swimlaneHead=0;swimlaneBody=0;fontStyle=0;connectable=0;strokeColor=inherit;fillColor=none;startSize=0;collapsible=0;recursiveResize=0;expand=0;fontSize=16;" vertex="1" parent="rywTV451hzt5ETVBgHHl-176">
          <mxGeometry x="133" width="47" height="32" as="geometry">
            <mxRectangle width="47" height="32" as="alternateBounds" />
          </mxGeometry>
        </mxCell>
        <mxCell id="rywTV451hzt5ETVBgHHl-182" value="&lt;font style=&quot;font-size: 16px;&quot;&gt;0&lt;/font&gt;" style="text;html=1;align=center;verticalAlign=middle;resizable=0;points=[];autosize=1;strokeColor=none;fillColor=none;" vertex="1" parent="rywTV451hzt5ETVBgHHl-181">
          <mxGeometry x="8.5" y="5" width="30" height="30" as="geometry" />
        </mxCell>
        <mxCell id="rywTV451hzt5ETVBgHHl-184" value="" style="endArrow=classic;startArrow=classic;html=1;rounded=0;entryX=0.5;entryY=0;entryDx=0;entryDy=0;exitX=0.75;exitY=1;exitDx=0;exitDy=0;" edge="1" parent="1" source="rywTV451hzt5ETVBgHHl-152" target="rywTV451hzt5ETVBgHHl-76">
          <mxGeometry width="50" height="50" relative="1" as="geometry">
            <mxPoint x="350" y="180" as="sourcePoint" />
            <mxPoint x="400" y="130" as="targetPoint" />
          </mxGeometry>
        </mxCell>
        <mxCell id="rywTV451hzt5ETVBgHHl-185" value="" style="endArrow=classic;startArrow=classic;html=1;rounded=0;exitX=1;exitY=1;exitDx=0;exitDy=0;entryX=0;entryY=0.75;entryDx=0;entryDy=0;" edge="1" parent="1" source="rywTV451hzt5ETVBgHHl-79" target="rywTV451hzt5ETVBgHHl-151">
          <mxGeometry width="50" height="50" relative="1" as="geometry">
            <mxPoint x="520" y="490" as="sourcePoint" />
            <mxPoint x="570" y="440" as="targetPoint" />
          </mxGeometry>
        </mxCell>
        <mxCell id="rywTV451hzt5ETVBgHHl-187" value="" style="rounded=0;whiteSpace=wrap;html=1;fillColor=#ffe6cc;strokeColor=#d79b00;" vertex="1" parent="1">
          <mxGeometry x="340" y="180" width="20" height="40" as="geometry" />
        </mxCell>
        <mxCell id="rywTV451hzt5ETVBgHHl-188" value="" style="rounded=0;whiteSpace=wrap;html=1;fillColor=#dae8fc;strokeColor=#6c8ebf;" vertex="1" parent="1">
          <mxGeometry x="376.25" y="180" width="20" height="40" as="geometry" />
        </mxCell>
        <mxCell id="rywTV451hzt5ETVBgHHl-189" value="" style="rounded=0;whiteSpace=wrap;html=1;fillColor=#d5e8d4;strokeColor=#82b366;" vertex="1" parent="1">
          <mxGeometry x="410" y="180" width="20" height="40" as="geometry" />
        </mxCell>
        <mxCell id="rywTV451hzt5ETVBgHHl-190" value="" style="rounded=0;whiteSpace=wrap;html=1;fillColor=#ffe6cc;strokeColor=#d79b00;" vertex="1" parent="1">
          <mxGeometry x="260" y="260" width="20" height="40" as="geometry" />
        </mxCell>
        <mxCell id="rywTV451hzt5ETVBgHHl-191" value="" style="rounded=0;whiteSpace=wrap;html=1;fillColor=#dae8fc;strokeColor=#6c8ebf;" vertex="1" parent="1">
          <mxGeometry x="296.25" y="260" width="20" height="40" as="geometry" />
        </mxCell>
        <mxCell id="rywTV451hzt5ETVBgHHl-192" value="" style="rounded=0;whiteSpace=wrap;html=1;fillColor=#d5e8d4;strokeColor=#82b366;" vertex="1" parent="1">
          <mxGeometry x="330" y="260" width="20" height="40" as="geometry" />
        </mxCell>
        <mxCell id="rywTV451hzt5ETVBgHHl-196" value="" style="rounded=0;whiteSpace=wrap;html=1;fillColor=#ffe6cc;strokeColor=#d79b00;" vertex="1" parent="1">
          <mxGeometry x="476.25" y="370" width="20" height="40" as="geometry" />
        </mxCell>
        <mxCell id="rywTV451hzt5ETVBgHHl-197" value="" style="rounded=0;whiteSpace=wrap;html=1;fillColor=#dae8fc;strokeColor=#6c8ebf;" vertex="1" parent="1">
          <mxGeometry x="512.5" y="370" width="20" height="40" as="geometry" />
        </mxCell>
        <mxCell id="rywTV451hzt5ETVBgHHl-198" value="" style="rounded=0;whiteSpace=wrap;html=1;fillColor=#d5e8d4;strokeColor=#82b366;" vertex="1" parent="1">
          <mxGeometry x="546.25" y="370" width="20" height="40" as="geometry" />
        </mxCell>
        <mxCell id="rywTV451hzt5ETVBgHHl-200" value="" style="rounded=0;whiteSpace=wrap;html=1;fillColor=#ffe6cc;strokeColor=#d79b00;" vertex="1" parent="1">
          <mxGeometry x="600" y="300" width="20" height="40" as="geometry" />
        </mxCell>
        <mxCell id="rywTV451hzt5ETVBgHHl-201" value="" style="rounded=0;whiteSpace=wrap;html=1;fillColor=#dae8fc;strokeColor=#6c8ebf;" vertex="1" parent="1">
          <mxGeometry x="636.25" y="300" width="20" height="40" as="geometry" />
        </mxCell>
        <mxCell id="rywTV451hzt5ETVBgHHl-202" value="" style="rounded=0;whiteSpace=wrap;html=1;fillColor=#d5e8d4;strokeColor=#82b366;" vertex="1" parent="1">
          <mxGeometry x="670" y="300" width="20" height="40" as="geometry" />
        </mxCell>
        <mxCell id="rywTV451hzt5ETVBgHHl-203" value="" style="rounded=0;whiteSpace=wrap;html=1;fillColor=#ffe6cc;strokeColor=#d79b00;" vertex="1" parent="1">
          <mxGeometry x="110" y="248.5" width="20" height="40" as="geometry" />
        </mxCell>
        <mxCell id="rywTV451hzt5ETVBgHHl-205" value="" style="rounded=0;whiteSpace=wrap;html=1;fillColor=#dae8fc;strokeColor=#6c8ebf;" vertex="1" parent="1">
          <mxGeometry x="550" y="170" width="20" height="40" as="geometry" />
        </mxCell>
        <mxCell id="rywTV451hzt5ETVBgHHl-206" value="" style="rounded=0;whiteSpace=wrap;html=1;fillColor=#d5e8d4;strokeColor=#82b366;" vertex="1" parent="1">
          <mxGeometry x="700" y="230" width="20" height="40" as="geometry" />
        </mxCell>
        <mxCell id="rywTV451hzt5ETVBgHHl-207" value="" style="image;aspect=fixed;perimeter=ellipsePerimeter;html=1;align=center;shadow=0;dashed=0;spacingTop=3;image=img/lib/active_directory/vista_terminal.svg;" vertex="1" parent="1">
          <mxGeometry x="476.25" y="510" width="32.5" height="50" as="geometry" />
        </mxCell>
        <mxCell id="rywTV451hzt5ETVBgHHl-208" value="ES4" style="shape=table;childLayout=tableLayout;startSize=40;collapsible=0;recursiveResize=0;expand=0;fontSize=16;" vertex="1" parent="1">
          <mxGeometry x="310" y="560" width="180" height="120" as="geometry" />
        </mxCell>
        <mxCell id="rywTV451hzt5ETVBgHHl-209" value="Q7" style="shape=tableRow;horizontal=0;swimlaneHead=0;swimlaneBody=0;top=0;left=0;strokeColor=inherit;bottom=0;right=0;dropTarget=0;fontStyle=0;fillColor=none;points=[[0,0.5],[1,0.5]];portConstraint=eastwest;startSize=40;collapsible=0;recursiveResize=0;expand=0;fontSize=16;" vertex="1" parent="rywTV451hzt5ETVBgHHl-208">
          <mxGeometry y="40" width="180" height="48" as="geometry" />
        </mxCell>
        <mxCell id="rywTV451hzt5ETVBgHHl-210" value="T0" style="swimlane;swimlaneHead=0;swimlaneBody=0;fontStyle=0;strokeColor=inherit;connectable=0;fillColor=none;startSize=20;collapsible=0;recursiveResize=0;expand=0;fontSize=16;" vertex="1" parent="rywTV451hzt5ETVBgHHl-209">
          <mxGeometry x="40" width="47" height="48" as="geometry">
            <mxRectangle width="47" height="48" as="alternateBounds" />
          </mxGeometry>
        </mxCell>
        <mxCell id="rywTV451hzt5ETVBgHHl-211" value="&lt;font style=&quot;font-size: 16px;&quot;&gt;1&lt;/font&gt;" style="text;html=1;align=center;verticalAlign=middle;resizable=0;points=[];autosize=1;strokeColor=none;fillColor=none;" vertex="1" parent="rywTV451hzt5ETVBgHHl-210">
          <mxGeometry x="8.5" y="20" width="30" height="30" as="geometry" />
        </mxCell>
        <mxCell id="rywTV451hzt5ETVBgHHl-212" value="T1" style="swimlane;swimlaneHead=0;swimlaneBody=0;fontStyle=0;strokeColor=inherit;connectable=0;fillColor=none;startSize=20;collapsible=0;recursiveResize=0;expand=0;fontSize=16;" vertex="1" parent="rywTV451hzt5ETVBgHHl-209">
          <mxGeometry x="87" width="46" height="48" as="geometry">
            <mxRectangle width="46" height="48" as="alternateBounds" />
          </mxGeometry>
        </mxCell>
        <mxCell id="rywTV451hzt5ETVBgHHl-213" value="&lt;font style=&quot;font-size: 16px;&quot;&gt;0&lt;/font&gt;" style="text;html=1;align=center;verticalAlign=middle;resizable=0;points=[];autosize=1;strokeColor=none;fillColor=none;" vertex="1" parent="rywTV451hzt5ETVBgHHl-212">
          <mxGeometry x="8" y="20" width="30" height="30" as="geometry" />
        </mxCell>
        <mxCell id="rywTV451hzt5ETVBgHHl-214" value="T2" style="swimlane;swimlaneHead=0;swimlaneBody=0;fontStyle=0;strokeColor=inherit;connectable=0;fillColor=none;startSize=20;collapsible=0;recursiveResize=0;expand=0;fontSize=16;" vertex="1" parent="rywTV451hzt5ETVBgHHl-209">
          <mxGeometry x="133" width="47" height="48" as="geometry">
            <mxRectangle width="47" height="48" as="alternateBounds" />
          </mxGeometry>
        </mxCell>
        <mxCell id="rywTV451hzt5ETVBgHHl-215" value="&lt;font style=&quot;font-size: 16px;&quot;&gt;1&lt;/font&gt;" style="text;html=1;align=center;verticalAlign=middle;resizable=0;points=[];autosize=1;strokeColor=none;fillColor=none;" vertex="1" parent="rywTV451hzt5ETVBgHHl-214">
          <mxGeometry x="8.5" y="20" width="30" height="30" as="geometry" />
        </mxCell>
        <mxCell id="rywTV451hzt5ETVBgHHl-216" value="Q6" style="shape=tableRow;horizontal=0;swimlaneHead=0;swimlaneBody=0;top=0;left=0;strokeColor=inherit;bottom=0;right=0;dropTarget=0;fontStyle=0;fillColor=none;points=[[0,0.5],[1,0.5]];portConstraint=eastwest;startSize=40;collapsible=0;recursiveResize=0;expand=0;fontSize=16;" vertex="1" parent="rywTV451hzt5ETVBgHHl-208">
          <mxGeometry y="88" width="180" height="32" as="geometry" />
        </mxCell>
        <mxCell id="rywTV451hzt5ETVBgHHl-217" value="" style="swimlane;swimlaneHead=0;swimlaneBody=0;fontStyle=0;connectable=0;strokeColor=inherit;fillColor=none;startSize=0;collapsible=0;recursiveResize=0;expand=0;fontSize=16;" vertex="1" parent="rywTV451hzt5ETVBgHHl-216">
          <mxGeometry x="40" width="47" height="32" as="geometry">
            <mxRectangle width="47" height="32" as="alternateBounds" />
          </mxGeometry>
        </mxCell>
        <mxCell id="rywTV451hzt5ETVBgHHl-218" value="&lt;font style=&quot;font-size: 16px;&quot;&gt;0&lt;/font&gt;" style="text;html=1;align=center;verticalAlign=middle;resizable=0;points=[];autosize=1;strokeColor=none;fillColor=none;" vertex="1" parent="rywTV451hzt5ETVBgHHl-217">
          <mxGeometry x="8.5" y="5" width="30" height="30" as="geometry" />
        </mxCell>
        <mxCell id="rywTV451hzt5ETVBgHHl-219" value="" style="swimlane;swimlaneHead=0;swimlaneBody=0;fontStyle=0;connectable=0;strokeColor=inherit;fillColor=none;startSize=0;collapsible=0;recursiveResize=0;expand=0;fontSize=16;" vertex="1" parent="rywTV451hzt5ETVBgHHl-216">
          <mxGeometry x="87" width="46" height="32" as="geometry">
            <mxRectangle width="46" height="32" as="alternateBounds" />
          </mxGeometry>
        </mxCell>
        <mxCell id="rywTV451hzt5ETVBgHHl-220" value="&lt;font style=&quot;font-size: 16px;&quot;&gt;1&lt;/font&gt;" style="text;html=1;align=center;verticalAlign=middle;resizable=0;points=[];autosize=1;strokeColor=none;fillColor=none;" vertex="1" parent="rywTV451hzt5ETVBgHHl-219">
          <mxGeometry x="8" y="5" width="30" height="30" as="geometry" />
        </mxCell>
        <mxCell id="rywTV451hzt5ETVBgHHl-221" value="" style="swimlane;swimlaneHead=0;swimlaneBody=0;fontStyle=0;connectable=0;strokeColor=inherit;fillColor=none;startSize=0;collapsible=0;recursiveResize=0;expand=0;fontSize=16;" vertex="1" parent="rywTV451hzt5ETVBgHHl-216">
          <mxGeometry x="133" width="47" height="32" as="geometry">
            <mxRectangle width="47" height="32" as="alternateBounds" />
          </mxGeometry>
        </mxCell>
        <mxCell id="rywTV451hzt5ETVBgHHl-222" value="&lt;font style=&quot;font-size: 16px;&quot;&gt;0&lt;/font&gt;" style="text;html=1;align=center;verticalAlign=middle;resizable=0;points=[];autosize=1;strokeColor=none;fillColor=none;" vertex="1" parent="rywTV451hzt5ETVBgHHl-221">
          <mxGeometry x="8.5" y="5" width="30" height="30" as="geometry" />
        </mxCell>
        <mxCell id="rywTV451hzt5ETVBgHHl-223" value="" style="endArrow=classic;startArrow=classic;html=1;rounded=0;entryX=0;entryY=1;entryDx=0;entryDy=0;exitX=1;exitY=0;exitDx=0;exitDy=0;" edge="1" parent="1" source="rywTV451hzt5ETVBgHHl-207" target="rywTV451hzt5ETVBgHHl-151">
          <mxGeometry width="50" height="50" relative="1" as="geometry">
            <mxPoint x="510" y="530" as="sourcePoint" />
            <mxPoint x="560" y="480" as="targetPoint" />
          </mxGeometry>
        </mxCell>
        <mxCell id="rywTV451hzt5ETVBgHHl-224" value="" style="rounded=0;whiteSpace=wrap;html=1;fillColor=#ffe6cc;strokeColor=#d79b00;" vertex="1" parent="1">
          <mxGeometry x="530" y="470" width="20" height="40" as="geometry" />
        </mxCell>
      </root>
    </mxGraphModel>
  </diagram>
</mxfile>
